<mxfile host="app.diagrams.net" modified="2023-09-16T06:49:20.467Z" agent="Mozilla/5.0 (Windows NT 10.0; Win64; x64) AppleWebKit/537.36 (KHTML, like Gecko) Chrome/116.0.0.0 Safari/537.36 OpenWave/99.4.7763.64" etag="Lm7JgvkGYyAL7SvrZT1X" version="21.7.5" type="device">
  <diagram name="Page-1" id="F55Mbg4zzoxhmsfP9F2V">
    <mxGraphModel dx="2440" dy="929" grid="1" gridSize="10" guides="1" tooltips="1" connect="1" arrows="1" fold="1" page="1" pageScale="1" pageWidth="827" pageHeight="1169" math="0" shadow="0">
      <root>
        <mxCell id="0" />
        <mxCell id="1" parent="0" />
        <mxCell id="MvYqBOjVcbLFHdokLBEU-2" value="" style="endArrow=none;html=1;rounded=0;entryX=0.132;entryY=0.667;entryDx=0;entryDy=0;entryPerimeter=0;" edge="1" parent="1" target="MvYqBOjVcbLFHdokLBEU-1">
          <mxGeometry width="50" height="50" relative="1" as="geometry">
            <mxPoint x="20" y="690" as="sourcePoint" />
            <mxPoint x="70" y="570" as="targetPoint" />
          </mxGeometry>
        </mxCell>
        <mxCell id="MvYqBOjVcbLFHdokLBEU-3" value="" style="endArrow=none;html=1;rounded=0;entryX=1.001;entryY=0.667;entryDx=0;entryDy=0;entryPerimeter=0;" edge="1" parent="1" target="MvYqBOjVcbLFHdokLBEU-1">
          <mxGeometry width="50" height="50" relative="1" as="geometry">
            <mxPoint x="160" y="560" as="sourcePoint" />
            <mxPoint x="570" y="400" as="targetPoint" />
          </mxGeometry>
        </mxCell>
        <mxCell id="MvYqBOjVcbLFHdokLBEU-4" value="" style="endArrow=none;html=1;rounded=0;entryX=1.001;entryY=0.667;entryDx=0;entryDy=0;entryPerimeter=0;" edge="1" parent="1">
          <mxGeometry width="50" height="50" relative="1" as="geometry">
            <mxPoint x="20" y="690" as="sourcePoint" />
            <mxPoint x="1080" y="690" as="targetPoint" />
          </mxGeometry>
        </mxCell>
        <mxCell id="MvYqBOjVcbLFHdokLBEU-5" value="" style="endArrow=none;html=1;rounded=0;entryX=0.132;entryY=0.667;entryDx=0;entryDy=0;entryPerimeter=0;" edge="1" parent="1">
          <mxGeometry width="50" height="50" relative="1" as="geometry">
            <mxPoint x="20" y="360" as="sourcePoint" />
            <mxPoint x="160" y="300" as="targetPoint" />
          </mxGeometry>
        </mxCell>
        <mxCell id="MvYqBOjVcbLFHdokLBEU-6" value="" style="endArrow=none;html=1;rounded=0;" edge="1" parent="1">
          <mxGeometry width="50" height="50" relative="1" as="geometry">
            <mxPoint x="160" y="560" as="sourcePoint" />
            <mxPoint x="160" y="300" as="targetPoint" />
          </mxGeometry>
        </mxCell>
        <mxCell id="MvYqBOjVcbLFHdokLBEU-7" value="" style="endArrow=none;html=1;rounded=0;entryX=0.999;entryY=0.348;entryDx=0;entryDy=0;entryPerimeter=0;" edge="1" parent="1" target="MvYqBOjVcbLFHdokLBEU-1">
          <mxGeometry width="50" height="50" relative="1" as="geometry">
            <mxPoint x="160" y="300" as="sourcePoint" />
            <mxPoint x="570" y="400" as="targetPoint" />
          </mxGeometry>
        </mxCell>
        <mxCell id="MvYqBOjVcbLFHdokLBEU-8" value="" style="shape=cube;whiteSpace=wrap;html=1;boundedLbl=1;backgroundOutline=1;darkOpacity=0.05;darkOpacity2=0.1;fillColor=#f8cecc;strokeColor=#b85450;" vertex="1" parent="1">
          <mxGeometry x="110" y="560" width="80" height="80" as="geometry" />
        </mxCell>
        <mxCell id="MvYqBOjVcbLFHdokLBEU-9" value="" style="shape=cube;whiteSpace=wrap;html=1;boundedLbl=1;backgroundOutline=1;darkOpacity=0.05;darkOpacity2=0.1;fillColor=#dae8fc;strokeColor=#6c8ebf;" vertex="1" parent="1">
          <mxGeometry x="720" y="590" width="80" height="80" as="geometry" />
        </mxCell>
        <mxCell id="MvYqBOjVcbLFHdokLBEU-10" value="" style="shape=cube;whiteSpace=wrap;html=1;boundedLbl=1;backgroundOutline=1;darkOpacity=0.05;darkOpacity2=0.1;fillColor=#d5e8d4;strokeColor=#82b366;" vertex="1" parent="1">
          <mxGeometry x="500" y="500" width="80" height="80" as="geometry" />
        </mxCell>
        <mxCell id="MvYqBOjVcbLFHdokLBEU-11" value="" style="endArrow=none;html=1;rounded=0;" edge="1" parent="1">
          <mxGeometry width="50" height="50" relative="1" as="geometry">
            <mxPoint x="800" y="560" as="sourcePoint" />
            <mxPoint x="800" y="300" as="targetPoint" />
          </mxGeometry>
        </mxCell>
        <mxCell id="MvYqBOjVcbLFHdokLBEU-12" value="" style="endArrow=none;html=1;rounded=0;" edge="1" parent="1">
          <mxGeometry width="50" height="50" relative="1" as="geometry">
            <mxPoint x="870" y="690" as="sourcePoint" />
            <mxPoint x="800" y="560" as="targetPoint" />
          </mxGeometry>
        </mxCell>
        <mxCell id="MvYqBOjVcbLFHdokLBEU-13" value="" style="shape=cube;whiteSpace=wrap;html=1;boundedLbl=1;backgroundOutline=1;darkOpacity=0.05;darkOpacity2=0.1;fillColor=#fa6800;strokeColor=#C73500;fontColor=#000000;" vertex="1" parent="1">
          <mxGeometry x="860" y="510" width="80" height="80" as="geometry" />
        </mxCell>
        <mxCell id="MvYqBOjVcbLFHdokLBEU-14" value="" style="shape=cube;whiteSpace=wrap;html=1;boundedLbl=1;backgroundOutline=1;darkOpacity=0.05;darkOpacity2=0.1;fillColor=#fa6800;strokeColor=#C73500;fontColor=#000000;" vertex="1" parent="1">
          <mxGeometry x="960" y="570" width="80" height="80" as="geometry" />
        </mxCell>
        <mxCell id="MvYqBOjVcbLFHdokLBEU-15" value="End the day" style="strokeWidth=1;shadow=0;dashed=0;align=center;html=1;shape=mxgraph.mockup.buttons.button;strokeColor=#666666;fontColor=#ffffff;mainText=;buttonStyle=round;fontSize=17;fontStyle=1;fillColor=#008cff;whiteSpace=wrap;" vertex="1" parent="1">
          <mxGeometry x="465" y="40" width="150" height="50" as="geometry" />
        </mxCell>
        <mxCell id="MvYqBOjVcbLFHdokLBEU-17" value="Inventory" style="strokeWidth=1;shadow=0;dashed=0;align=center;html=1;shape=mxgraph.mockup.buttons.button;strokeColor=#666666;fontColor=#ffffff;mainText=;buttonStyle=round;fontSize=17;fontStyle=1;fillColor=#008cff;whiteSpace=wrap;" vertex="1" parent="1">
          <mxGeometry x="950" y="50" width="90" height="30" as="geometry" />
        </mxCell>
        <mxCell id="MvYqBOjVcbLFHdokLBEU-1" value="" style="whiteSpace=wrap;html=1;rounded=0;shadow=0;labelBackgroundColor=none;strokeColor=#666666;strokeWidth=1;fillColor=#f5f5f5;fontFamily=Verdana;fontSize=12;fontColor=#333333;align=center;comic=1;opacity=75;" vertex="1" parent="1">
          <mxGeometry x="20" y="20" width="1060" height="810" as="geometry" />
        </mxCell>
        <object label="" Settings="" id="MvYqBOjVcbLFHdokLBEU-16">
          <mxCell style="icon;html=1;image=img/clipart/Gear_128x128.png;fontSize=13;" vertex="1" parent="1">
            <mxGeometry x="50" y="35" width="60" height="60" as="geometry" />
          </mxCell>
        </object>
        <mxCell id="MvYqBOjVcbLFHdokLBEU-18" value="" style="strokeWidth=1;shadow=0;dashed=0;align=center;html=1;shape=mxgraph.mockup.containers.rrect;rSize=0;strokeColor=#666666;fontColor=#666666;fontSize=17;verticalAlign=top;whiteSpace=wrap;fillColor=#ffffff;spacingTop=32;" vertex="1" parent="1">
          <mxGeometry x="420" y="270" width="290" height="355.3876923076923" as="geometry" />
        </mxCell>
        <mxCell id="MvYqBOjVcbLFHdokLBEU-19" value="Settings" style="strokeWidth=1;shadow=0;dashed=0;align=center;html=1;shape=mxgraph.mockup.containers.rrect;rSize=0;fontSize=17;fontColor=#666666;strokeColor=#666666;align=left;spacingLeft=8;fillColor=#ffffff;resizeWidth=1;whiteSpace=wrap;fontStyle=1" vertex="1" parent="MvYqBOjVcbLFHdokLBEU-18">
          <mxGeometry width="290" height="30" relative="1" as="geometry" />
        </mxCell>
        <mxCell id="MvYqBOjVcbLFHdokLBEU-20" value="" style="shape=ellipse;strokeColor=#008cff;resizable=0;fillColor=none;html=1;" vertex="1" parent="MvYqBOjVcbLFHdokLBEU-19">
          <mxGeometry x="1" y="0.5" width="20" height="20" relative="1" as="geometry">
            <mxPoint x="-25" y="-10" as="offset" />
          </mxGeometry>
        </mxCell>
        <mxCell id="MvYqBOjVcbLFHdokLBEU-27" value="" style="verticalLabelPosition=bottom;shadow=0;dashed=0;align=center;html=1;verticalAlign=top;strokeWidth=1;shape=mxgraph.mockup.forms.horSlider;strokeColor=#999999;sliderStyle=basic;sliderPos=71.244;handleStyle=circle;fillColor2=#ddeeff;" vertex="1" parent="MvYqBOjVcbLFHdokLBEU-18">
          <mxGeometry x="87.92" y="29.97435897435897" width="142.08" height="65.625" as="geometry" />
        </mxCell>
        <mxCell id="MvYqBOjVcbLFHdokLBEU-28" value="" style="verticalLabelPosition=bottom;shadow=0;dashed=0;align=center;html=1;verticalAlign=top;strokeWidth=1;shape=mxgraph.mockup.forms.horSlider;strokeColor=#999999;sliderStyle=basic;sliderPos=40.744;handleStyle=circle;fillColor2=#ddeeff;" vertex="1" parent="MvYqBOjVcbLFHdokLBEU-18">
          <mxGeometry x="87.92" y="78.82051282051282" width="142.08" height="65.625" as="geometry" />
        </mxCell>
        <mxCell id="MvYqBOjVcbLFHdokLBEU-29" value="Option 1" style="strokeWidth=1;shadow=0;dashed=0;align=center;html=1;shape=mxgraph.mockup.forms.comboBox;strokeColor=#999999;fillColor=#ddeeff;align=left;fillColor2=#aaddff;mainText=;fontColor=#666666;fontSize=17;spacingLeft=3;" vertex="1" parent="MvYqBOjVcbLFHdokLBEU-18">
          <mxGeometry x="104.91999999999999" y="203.19230769230768" width="174" height="40.38461538461539" as="geometry" />
        </mxCell>
        <mxCell id="MvYqBOjVcbLFHdokLBEU-31" value="Key bindings" style="strokeWidth=1;shadow=0;dashed=0;align=center;html=1;shape=mxgraph.mockup.buttons.button;mainText=;buttonStyle=round;fontSize=17;fontStyle=1;whiteSpace=wrap;fillColor=#bac8d3;strokeColor=#23445d;" vertex="1" parent="MvYqBOjVcbLFHdokLBEU-18">
          <mxGeometry x="104.91999999999999" y="145.92307692307693" width="174" height="40.38461538461539" as="geometry" />
        </mxCell>
        <mxCell id="MvYqBOjVcbLFHdokLBEU-32" value="Music" style="text;align=left;fontStyle=1;verticalAlign=middle;spacingLeft=3;spacingRight=3;strokeColor=none;rotatable=0;points=[[0,0.5],[1,0.5]];portConstraint=eastwest;html=1;fontSize=14;" vertex="1" parent="MvYqBOjVcbLFHdokLBEU-18">
          <mxGeometry x="11.6" y="45.29358974358975" width="81.19999999999999" height="35" as="geometry" />
        </mxCell>
        <mxCell id="MvYqBOjVcbLFHdokLBEU-33" value="FX" style="text;align=left;fontStyle=1;verticalAlign=middle;spacingLeft=3;spacingRight=3;strokeColor=none;rotatable=0;points=[[0,0.5],[1,0.5]];portConstraint=eastwest;html=1;fontSize=14;" vertex="1" parent="MvYqBOjVcbLFHdokLBEU-18">
          <mxGeometry x="11.6" y="94.13974358974357" width="81.19999999999999" height="35" as="geometry" />
        </mxCell>
        <mxCell id="MvYqBOjVcbLFHdokLBEU-34" value="Resolution" style="text;align=left;fontStyle=1;verticalAlign=middle;spacingLeft=3;spacingRight=3;strokeColor=none;rotatable=0;points=[[0,0.5],[1,0.5]];portConstraint=eastwest;html=1;fontSize=14;" vertex="1" parent="MvYqBOjVcbLFHdokLBEU-18">
          <mxGeometry x="11.6" y="205.88461538461536" width="81.19999999999999" height="35" as="geometry" />
        </mxCell>
        <mxCell id="MvYqBOjVcbLFHdokLBEU-35" value="70" style="strokeWidth=1;shadow=0;dashed=0;align=center;html=1;shape=mxgraph.mockup.text.textBox;fontColor=#666666;align=left;fontSize=17;spacingLeft=4;spacingTop=-3;whiteSpace=wrap;strokeColor=#666666;mainText=" vertex="1" parent="MvYqBOjVcbLFHdokLBEU-18">
          <mxGeometry x="250" y="42.60128205128204" width="30" height="40.38461538461539" as="geometry" />
        </mxCell>
        <mxCell id="MvYqBOjVcbLFHdokLBEU-36" value="35" style="strokeWidth=1;shadow=0;dashed=0;align=center;html=1;shape=mxgraph.mockup.text.textBox;fontColor=#666666;align=left;fontSize=17;spacingLeft=4;spacingTop=-3;whiteSpace=wrap;strokeColor=#666666;mainText=" vertex="1" parent="MvYqBOjVcbLFHdokLBEU-18">
          <mxGeometry x="250" y="91.44743589743588" width="30" height="40.38461538461539" as="geometry" />
        </mxCell>
        <mxCell id="MvYqBOjVcbLFHdokLBEU-37" value="Option 1" style="strokeWidth=1;shadow=0;dashed=0;align=center;html=1;shape=mxgraph.mockup.forms.comboBox;strokeColor=#999999;fillColor=#ddeeff;align=left;fillColor2=#aaddff;mainText=;fontColor=#666666;fontSize=17;spacingLeft=3;" vertex="1" parent="MvYqBOjVcbLFHdokLBEU-18">
          <mxGeometry x="104.91999999999996" y="259.66397435897426" width="174" height="40.38461538461539" as="geometry" />
        </mxCell>
        <mxCell id="MvYqBOjVcbLFHdokLBEU-38" value="Language" style="text;align=left;fontStyle=1;verticalAlign=middle;spacingLeft=3;spacingRight=3;strokeColor=none;rotatable=0;points=[[0,0.5],[1,0.5]];portConstraint=eastwest;html=1;fontSize=14;" vertex="1" parent="MvYqBOjVcbLFHdokLBEU-18">
          <mxGeometry x="11.600000000000023" y="262.35628205128205" width="81.19999999999999" height="35" as="geometry" />
        </mxCell>
        <mxCell id="MvYqBOjVcbLFHdokLBEU-39" value="Back" style="strokeWidth=1;shadow=0;dashed=0;align=center;html=1;shape=mxgraph.mockup.buttons.button;mainText=;buttonStyle=round;fontSize=17;fontStyle=1;whiteSpace=wrap;fillColor=#b1ddf0;strokeColor=#10739e;" vertex="1" parent="MvYqBOjVcbLFHdokLBEU-18">
          <mxGeometry x="20" y="317" width="250" height="25" as="geometry" />
        </mxCell>
      </root>
    </mxGraphModel>
  </diagram>
</mxfile>
